<svg width="36" height="47" viewBox="0 0 36 47" fill="none" xmlns="http://www.w3.org/2000/svg">
<path d="M0 4.11251C0 1.84241 2.016 0 4.5 0H31.5C33.984 0 36 1.84241 36 4.11251V45.2377C36 45.5695 35.8974 45.8946 35.7042 46.1755C35.5109 46.4565 35.2348 46.6819 34.9076 46.8257C34.5803 46.9696 34.2153 47.0261 33.8545 46.9888C33.4937 46.9515 33.1517 46.8218 32.868 46.6148L18 35.7436L3.13457 46.6124C2.85103 46.8201 2.50906 46.9503 2.14807 46.9881C1.78707 47.0259 1.42174 46.9697 1.09416 46.826C0.766573 46.6824 0.490065 46.457 0.296485 46.176C0.102905 45.895 0.000129972 45.5697 0 45.2377V4.11251ZM4.5 3.52501C4.3295 3.52501 4.16599 3.58691 4.04543 3.69709C3.92487 3.80727 3.85714 3.9567 3.85714 4.11251V41.5716L16.794 32.1105C17.136 31.8595 17.5614 31.7227 18 31.7227C18.4386 31.7227 18.864 31.8595 19.206 32.1105L32.1429 41.5716V4.11251C32.1429 3.9567 32.0751 3.80727 31.9546 3.69709C31.834 3.58691 31.6705 3.52501 31.5 3.52501H4.5Z" fill="#0F172A"/>
</svg>
