<svg width="36" height="47" viewBox="0 0 36 47" fill="none" xmlns="http://www.w3.org/2000/svg">
<path d="M4.01607e-07 5.87487V45.5302C-0.000190181 45.7853 0.0674536 46.036 0.196274 46.2576C0.325094 46.4793 0.51065 46.6643 0.734675 46.7944C0.958701 46.9246 1.21347 46.9953 1.47391 46.9998C1.73436 47.0042 1.99149 46.9422 2.22 46.8197L18 38.3893L33.78 46.8197C34.0085 46.9422 34.2656 47.0042 34.5261 46.9998C34.7865 46.9953 35.0413 46.9246 35.2653 46.7944C35.4894 46.6643 35.6749 46.4793 35.8037 46.2576C35.9325 46.036 36.0002 45.7853 36 45.5302V5.87487C36 4.31675 35.3679 2.82246 34.2426 1.72071C33.1174 0.618957 31.5913 0 30 0H6C4.4087 0 2.88258 0.618957 1.75736 1.72071C0.632141 2.82246 4.01607e-07 4.31675 4.01607e-07 5.87487Z" fill="#FFD700"/>
</svg>
