<svg width="28" height="28" viewBox="0 0 28 28" fill="none" xmlns="http://www.w3.org/2000/svg">
<path fill-rule="evenodd" clip-rule="evenodd" d="M2.75 14C2.75 12.5226 3.04099 11.0597 3.60636 9.69481C4.17172 8.3299 5.00039 7.08971 6.04505 6.04505C7.08971 5.00039 8.3299 4.17172 9.69481 3.60636C11.0597 3.04099 12.5226 2.75 14 2.75C15.4774 2.75 16.9403 3.04099 18.3052 3.60636C19.6701 4.17172 20.9103 5.00039 21.955 6.04505C22.9996 7.08971 23.8283 8.3299 24.3936 9.69481C24.959 11.0597 25.25 12.5226 25.25 14C25.25 16.9837 24.0647 19.8452 21.955 21.955C19.8452 24.0647 16.9837 25.25 14 25.25C11.0163 25.25 8.15483 24.0647 6.04505 21.955C3.93526 19.8452 2.75 16.9837 2.75 14ZM14 0.25C6.40625 0.25 0.25 6.40625 0.25 14C0.25 21.5938 6.40625 27.75 14 27.75C21.5938 27.75 27.75 21.5938 27.75 14C27.75 6.40625 21.5938 0.25 14 0.25ZM17.3837 8.63375C17.6114 8.398 17.7374 8.08224 17.7346 7.7545C17.7317 7.42675 17.6003 7.11324 17.3685 6.88148C17.1368 6.64972 16.8232 6.51826 16.4955 6.51541C16.1678 6.51256 15.852 6.63855 15.6163 6.86625L9.36625 13.1163C9.13191 13.3507 9.00027 13.6685 9.00027 14C9.00027 14.3315 9.13191 14.6493 9.36625 14.8837L15.6163 21.1338C15.852 21.3614 16.1678 21.4874 16.4955 21.4846C16.8232 21.4817 17.1368 21.3503 17.3685 21.1185C17.6003 20.8868 17.7317 20.5732 17.7346 20.2455C17.7374 19.9178 17.6114 19.602 17.3837 19.3662L12.0175 14L17.3837 8.63375Z" fill="black"/>
</svg>
