<svg width="28" height="28" viewBox="0 0 28 28" fill="none" xmlns="http://www.w3.org/2000/svg">
<path fill-rule="evenodd" clip-rule="evenodd" d="M2.75 14C2.75 12.5226 3.04099 11.0597 3.60636 9.69481C4.17172 8.3299 5.00039 7.08971 6.04505 6.04505C7.08971 5.00039 8.3299 4.17172 9.69481 3.60636C11.0597 3.04099 12.5226 2.75 14 2.75C15.4774 2.75 16.9403 3.04099 18.3052 3.60636C19.6701 4.17172 20.9103 5.00039 21.955 6.04505C22.9996 7.08971 23.8283 8.3299 24.3936 9.69481C24.959 11.0597 25.25 12.5226 25.25 14C25.25 16.9837 24.0647 19.8452 21.955 21.955C19.8452 24.0647 16.9837 25.25 14 25.25C11.0163 25.25 8.15483 24.0647 6.04505 21.955C3.93526 19.8452 2.75 16.9837 2.75 14ZM14 0.25C6.40625 0.25 0.25 6.40625 0.25 14C0.25 21.5938 6.40625 27.75 14 27.75C21.5938 27.75 27.75 21.5938 27.75 14C27.75 6.40625 21.5938 0.25 14 0.25ZM12.3837 6.86625C12.148 6.63855 11.8322 6.51256 11.5045 6.51541C11.1768 6.51826 10.8632 6.64972 10.6315 6.88148C10.3997 7.11324 10.2683 7.42675 10.2654 7.7545C10.2626 8.08224 10.3886 8.398 10.6163 8.63375L15.9825 14L10.6163 19.3662C10.4969 19.4816 10.4016 19.6195 10.3361 19.772C10.2706 19.9245 10.2361 20.0885 10.2347 20.2545C10.2332 20.4205 10.2649 20.5851 10.3277 20.7387C10.3906 20.8923 10.4834 21.0319 10.6008 21.1492C10.7181 21.2666 10.8577 21.3594 11.0113 21.4223C11.1649 21.4851 11.3295 21.5168 11.4955 21.5153C11.6615 21.5139 11.8255 21.4794 11.978 21.4139C12.1305 21.3484 12.2684 21.2531 12.3837 21.1338L18.6337 14.8837C18.8681 14.6493 18.9997 14.3315 18.9997 14C18.9997 13.6685 18.8681 13.3507 18.6337 13.1163L12.3837 6.86625Z" fill="black"/>
</svg>
